<?xml version="1.0" encoding="utf-8"?>
<svg xmlns="http://www.w3.org/2000/svg" xmlns:xlink="http://www.w3.org/1999/xlink" width="600" height="400" viewBox="0 0 2400 1600">
<defs>
  <clipPath id="clip610">
    <rect x="0" y="0" width="2400" height="1600"/>
  </clipPath>
</defs>
<path clip-path="url(#clip610)" d="M0 1600 L2400 1600 L2400 8.88178e-14 L0 8.88178e-14  Z" fill="#ffffff" fill-rule="evenodd" fill-opacity="1"/>
<defs>
  <clipPath id="clip611">
    <rect x="480" y="0" width="1681" height="1600"/>
  </clipPath>
</defs>
<path clip-path="url(#clip610)" d="M202.373 1470.71 L2352.76 1470.71 L2352.76 47.2441 L202.373 47.2441  Z" fill="#ffffff" fill-rule="evenodd" fill-opacity="1"/>
<defs>
  <clipPath id="clip612">
    <rect x="202" y="47" width="2151" height="1424"/>
  </clipPath>
</defs>
<polyline clip-path="url(#clip612)" style="stroke:#000000; stroke-linecap:round; stroke-linejoin:round; stroke-width:2; stroke-opacity:0.1; fill:none" points="476.776,1470.71 476.776,47.2441 "/>
<polyline clip-path="url(#clip612)" style="stroke:#000000; stroke-linecap:round; stroke-linejoin:round; stroke-width:2; stroke-opacity:0.1; fill:none" points="1010.64,1470.71 1010.64,47.2441 "/>
<polyline clip-path="url(#clip612)" style="stroke:#000000; stroke-linecap:round; stroke-linejoin:round; stroke-width:2; stroke-opacity:0.1; fill:none" points="1544.49,1470.71 1544.49,47.2441 "/>
<polyline clip-path="url(#clip612)" style="stroke:#000000; stroke-linecap:round; stroke-linejoin:round; stroke-width:2; stroke-opacity:0.1; fill:none" points="2078.35,1470.71 2078.35,47.2441 "/>
<polyline clip-path="url(#clip612)" style="stroke:#000000; stroke-linecap:round; stroke-linejoin:round; stroke-width:2; stroke-opacity:0.1; fill:none" points="202.373,1337.75 2352.76,1337.75 "/>
<polyline clip-path="url(#clip612)" style="stroke:#000000; stroke-linecap:round; stroke-linejoin:round; stroke-width:2; stroke-opacity:0.1; fill:none" points="202.373,1067.97 2352.76,1067.97 "/>
<polyline clip-path="url(#clip612)" style="stroke:#000000; stroke-linecap:round; stroke-linejoin:round; stroke-width:2; stroke-opacity:0.1; fill:none" points="202.373,798.191 2352.76,798.191 "/>
<polyline clip-path="url(#clip612)" style="stroke:#000000; stroke-linecap:round; stroke-linejoin:round; stroke-width:2; stroke-opacity:0.1; fill:none" points="202.373,528.41 2352.76,528.41 "/>
<polyline clip-path="url(#clip612)" style="stroke:#000000; stroke-linecap:round; stroke-linejoin:round; stroke-width:2; stroke-opacity:0.1; fill:none" points="202.373,258.63 2352.76,258.63 "/>
<polyline clip-path="url(#clip610)" style="stroke:#000000; stroke-linecap:round; stroke-linejoin:round; stroke-width:4; stroke-opacity:1; fill:none" points="202.373,1470.71 2352.76,1470.71 "/>
<polyline clip-path="url(#clip610)" style="stroke:#000000; stroke-linecap:round; stroke-linejoin:round; stroke-width:4; stroke-opacity:1; fill:none" points="476.776,1470.71 476.776,1451.81 "/>
<polyline clip-path="url(#clip610)" style="stroke:#000000; stroke-linecap:round; stroke-linejoin:round; stroke-width:4; stroke-opacity:1; fill:none" points="1010.64,1470.71 1010.64,1451.81 "/>
<polyline clip-path="url(#clip610)" style="stroke:#000000; stroke-linecap:round; stroke-linejoin:round; stroke-width:4; stroke-opacity:1; fill:none" points="1544.49,1470.71 1544.49,1451.81 "/>
<polyline clip-path="url(#clip610)" style="stroke:#000000; stroke-linecap:round; stroke-linejoin:round; stroke-width:4; stroke-opacity:1; fill:none" points="2078.35,1470.71 2078.35,1451.81 "/>
<g clip-path="url(#clip610)">
<text style="fill:#000000; fill-opacity:1; font-family:Arial,Helvetica Neue,Helvetica,sans-serif; font-size:71px; font-weight:bold; text-anchor:middle;" transform="rotate(0, 476.776, 1553.63)" x="476.776" y="1553.63">ND</text>
</g>
<g clip-path="url(#clip610)">
<text style="fill:#000000; fill-opacity:1; font-family:Arial,Helvetica Neue,Helvetica,sans-serif; font-size:71px; font-weight:bold; text-anchor:middle;" transform="rotate(0, 1010.64, 1553.63)" x="1010.64" y="1553.63">NN</text>
</g>
<g clip-path="url(#clip610)">
<text style="fill:#000000; fill-opacity:1; font-family:Arial,Helvetica Neue,Helvetica,sans-serif; font-size:71px; font-weight:bold; text-anchor:middle;" transform="rotate(0, 1544.49, 1553.63)" x="1544.49" y="1553.63">TD</text>
</g>
<g clip-path="url(#clip610)">
<text style="fill:#000000; fill-opacity:1; font-family:Arial,Helvetica Neue,Helvetica,sans-serif; font-size:71px; font-weight:bold; text-anchor:middle;" transform="rotate(0, 2078.35, 1553.63)" x="2078.35" y="1553.63">TN</text>
</g>
<polyline clip-path="url(#clip610)" style="stroke:#000000; stroke-linecap:round; stroke-linejoin:round; stroke-width:4; stroke-opacity:1; fill:none" points="202.373,1470.71 202.373,47.2441 "/>
<polyline clip-path="url(#clip610)" style="stroke:#000000; stroke-linecap:round; stroke-linejoin:round; stroke-width:4; stroke-opacity:1; fill:none" points="202.373,1337.75 221.271,1337.75 "/>
<polyline clip-path="url(#clip610)" style="stroke:#000000; stroke-linecap:round; stroke-linejoin:round; stroke-width:4; stroke-opacity:1; fill:none" points="202.373,1067.97 221.271,1067.97 "/>
<polyline clip-path="url(#clip610)" style="stroke:#000000; stroke-linecap:round; stroke-linejoin:round; stroke-width:4; stroke-opacity:1; fill:none" points="202.373,798.191 221.271,798.191 "/>
<polyline clip-path="url(#clip610)" style="stroke:#000000; stroke-linecap:round; stroke-linejoin:round; stroke-width:4; stroke-opacity:1; fill:none" points="202.373,528.41 221.271,528.41 "/>
<polyline clip-path="url(#clip610)" style="stroke:#000000; stroke-linecap:round; stroke-linejoin:round; stroke-width:4; stroke-opacity:1; fill:none" points="202.373,258.63 221.271,258.63 "/>
<g clip-path="url(#clip610)">
<text style="fill:#000000; fill-opacity:1; font-family:Arial,Helvetica Neue,Helvetica,sans-serif; font-size:48px; text-anchor:middle;" transform="rotate(0, 139.611, 1355.25)" x="139.611" y="1355.25">−6</text>
</g>
<g clip-path="url(#clip610)">
<text style="fill:#000000; fill-opacity:1; font-family:Arial,Helvetica Neue,Helvetica,sans-serif; font-size:48px; text-anchor:middle;" transform="rotate(0, 139.611, 1085.47)" x="139.611" y="1085.47">−3</text>
</g>
<g clip-path="url(#clip610)">
<text style="fill:#000000; fill-opacity:1; font-family:Arial,Helvetica Neue,Helvetica,sans-serif; font-size:48px; text-anchor:middle;" transform="rotate(0, 152.992, 815.691)" x="152.992" y="815.691">0</text>
</g>
<g clip-path="url(#clip610)">
<text style="fill:#000000; fill-opacity:1; font-family:Arial,Helvetica Neue,Helvetica,sans-serif; font-size:48px; text-anchor:middle;" transform="rotate(0, 152.992, 545.91)" x="152.992" y="545.91">3</text>
</g>
<g clip-path="url(#clip610)">
<text style="fill:#000000; fill-opacity:1; font-family:Arial,Helvetica Neue,Helvetica,sans-serif; font-size:48px; text-anchor:middle;" transform="rotate(0, 152.992, 276.13)" x="152.992" y="276.13">6</text>
</g>
<g clip-path="url(#clip610)">
<text style="fill:#000000; fill-opacity:1; font-family:Arial,Helvetica Neue,Helvetica,sans-serif; font-size:66px; text-anchor:middle;" transform="rotate(-90, 65.2861, 758.976)" x="65.2861" y="758.976">Net charge at pH 7.7</text>
</g>
<path clip-path="url(#clip612)" d="M477.155 1430.42 L477.15 1423.4 L477.09 1416.39 L477.002 1409.37 L476.919 1402.35 L476.871 1395.34 L476.887 1388.32 L477.013 1381.3 L477.327 1374.29 L477.908 1367.27 L478.767 1360.25 L479.759 1353.23 L480.582 1346.22 L480.909 1339.2 L480.596 1332.18 L479.782 1325.17 L478.794 1318.15 L477.951 1311.13 L477.436 1304.12 L477.336 1297.1 L477.758 1290.08 L478.904 1283.06 L480.979 1276.05 L483.922 1269.03 L487.154 1262.01 L489.632 1255 L490.355 1247.98 L489 1240.96 L486.157 1233.95 L482.933 1226.93 L480.32 1219.91 L478.875 1212.9 L478.906 1205.88 L480.87 1198.86 L485.521 1191.84 L493.453 1184.83 L504.137 1177.81 L515.177 1170.79 L522.821 1163.78 L523.912 1156.76 L517.948 1149.74 L507.457 1142.73 L496.339 1135.71 L487.717 1128.69 L483.068 1121.67 L482.945 1114.66 L488.197 1107.64 L500.287 1100.62 L520.004 1093.61 L545.162 1086.59 L569.352 1079.57 L583.899 1072.56 L582.679 1065.54 L566.189 1058.52 L541.249 1051.5 L516.61 1044.49 L498.435 1037.47 L489.056 1030.45 L488.914 1023.44 L499.037 1016.42 L521.419 1009.4 L556.431 1002.39 L598.938 995.369 L637.017 988.352 L656.396 981.335 L648.785 974.318 L617.478 967.301 L575.118 960.284 L535.736 953.267 L508.007 946.25 L494.301 939.233 L494.226 932.216 L508.234 925.199 L537.837 918.182 L581.988 911.165 L632.579 904.148 L674.104 897.131 L690.32 890.114 L674.161 883.097 L632.592 876.08 L581.872 869.063 L537.626 862.046 L508.074 855.029 L494.335 848.012 L494.99 840.995 L509.807 833.978 L539.526 826.961 L582.015 819.944 L628.309 812.927 L663.285 805.91 L672.783 798.893 L652.558 791.876 L611.257 784.859 L564.573 777.842 L525.925 770.825 L501.234 763.808 L490.184 756.791 L490.563 749.774 L501.235 742.757 L521.787 735.74 L549.766 728.723 L578.384 721.706 L597.719 714.69 L599.745 707.673 L583.515 700.656 L555.842 693.639 L526.774 686.622 L503.918 679.605 L489.979 672.588 L484.128 665.571 L484.718 658.554 L490.833 651.537 L501.879 644.52 L516.088 637.503 L529.602 630.486 L537.485 623.469 L536.401 616.452 L526.799 609.435 L512.616 602.418 L498.72 595.401 L488.351 588.384 L482.356 581.367 L480.114 574.35 L480.805 567.333 L483.971 560.316 L489.187 553.299 L495.402 546.282 L500.716 539.265 L503.073 532.248 L501.453 525.231 L496.557 518.214 L490.322 511.197 L484.709 504.18 L480.783 497.163 L478.633 490.146 L477.857 483.129 L478.057 476.112 L478.997 469.095 L480.477 462.078 L482.135 455.061 L483.418 448.044 L483.807 441.027 L483.13 434.01 L481.678 426.993 L480.005 419.976 L478.596 412.959 L477.666 405.942 L477.191 398.925 L477.052 391.908 L477.146 384.891 L477.411 377.874 L477.781 370.858 L478.149 363.841 L478.38 356.824 L478.377 349.807 L478.142 342.79 L477.772 335.773 L477.397 328.756 L477.107 321.739 L476.929 314.722 L476.843 307.705 L476.819 300.688 L476.833 293.671 L476.877 286.654 L476.939 279.637 L477.003 272.62 L477.045 265.603 L477.048 258.586 L477.01 251.569 L476.947 244.552 L476.883 237.535 L476.833 230.518 L476.802 223.501 L476.788 216.484 L476.785 209.467 L476.79 202.45 L476.8 195.433 L476.813 188.416 L476.825 181.399 L476.831 174.382 L476.721 174.382 L476.727 181.399 L476.739 188.416 L476.753 195.433 L476.763 202.45 L476.767 209.467 L476.764 216.484 L476.75 223.501 L476.72 230.518 L476.67 237.535 L476.605 244.552 L476.543 251.569 L476.505 258.586 L476.508 265.603 L476.55 272.62 L476.614 279.637 L476.676 286.654 L476.719 293.671 L476.734 300.688 L476.709 307.705 L476.623 314.722 L476.445 321.739 L476.156 328.756 L475.781 335.773 L475.411 342.79 L475.175 349.807 L475.172 356.824 L475.404 363.841 L475.771 370.858 L476.141 377.874 L476.406 384.891 L476.501 391.908 L476.361 398.925 L475.887 405.942 L474.957 412.959 L473.547 419.976 L471.874 426.993 L470.423 434.01 L469.746 441.027 L470.135 448.044 L471.418 455.061 L473.076 462.078 L474.556 469.095 L475.496 476.112 L475.695 483.129 L474.92 490.146 L472.77 497.163 L468.844 504.18 L463.231 511.197 L456.996 518.214 L452.1 525.231 L450.48 532.248 L452.836 539.265 L458.151 546.282 L464.366 553.299 L469.582 560.316 L472.747 567.333 L473.439 574.35 L471.197 581.367 L465.202 588.384 L454.832 595.401 L440.937 602.418 L426.753 609.435 L417.152 616.452 L416.067 623.469 L423.951 630.486 L437.464 637.503 L451.674 644.52 L462.719 651.537 L468.834 658.554 L469.425 665.571 L463.573 672.588 L449.634 679.605 L426.779 686.622 L397.711 693.639 L370.038 700.656 L353.808 707.673 L355.834 714.69 L375.169 721.706 L403.787 728.723 L431.766 735.74 L452.318 742.757 L462.99 749.774 L463.368 756.791 L452.319 763.808 L427.628 770.825 L388.979 777.842 L342.296 784.859 L300.994 791.876 L280.77 798.893 L290.268 805.91 L325.243 812.927 L371.537 819.944 L414.027 826.961 L443.745 833.978 L458.563 840.995 L459.218 848.012 L445.478 855.029 L415.927 862.046 L371.68 869.063 L320.961 876.08 L279.391 883.097 L263.233 890.114 L279.448 897.131 L320.973 904.148 L371.564 911.165 L415.715 918.182 L445.319 925.199 L459.327 932.216 L459.252 939.233 L445.546 946.25 L417.817 953.267 L378.435 960.284 L336.075 967.301 L304.767 974.318 L297.157 981.335 L316.536 988.352 L354.615 995.369 L397.122 1002.39 L432.134 1009.4 L454.516 1016.42 L464.639 1023.44 L464.497 1030.45 L455.118 1037.47 L436.943 1044.49 L412.304 1051.5 L387.364 1058.52 L370.874 1065.54 L369.653 1072.56 L384.201 1079.57 L408.391 1086.59 L433.548 1093.61 L453.265 1100.62 L465.356 1107.64 L470.608 1114.66 L470.485 1121.67 L465.835 1128.69 L457.213 1135.71 L446.096 1142.73 L435.605 1149.74 L429.641 1156.76 L430.732 1163.78 L438.376 1170.79 L449.415 1177.81 L460.099 1184.83 L468.032 1191.84 L472.682 1198.86 L474.647 1205.88 L474.677 1212.9 L473.232 1219.91 L470.619 1226.93 L467.395 1233.95 L464.553 1240.96 L463.198 1247.98 L463.92 1255 L466.399 1262.01 L469.631 1269.03 L472.574 1276.05 L474.648 1283.06 L475.795 1290.08 L476.217 1297.1 L476.117 1304.12 L475.602 1311.13 L474.758 1318.15 L473.771 1325.17 L472.957 1332.18 L472.644 1339.2 L472.971 1346.22 L473.793 1353.23 L474.786 1360.25 L475.645 1367.27 L476.226 1374.29 L476.539 1381.3 L476.666 1388.32 L476.682 1395.34 L476.634 1402.35 L476.551 1409.37 L476.463 1416.39 L476.403 1423.4 L476.397 1430.42 L477.155 1430.42  Z" fill="#cd69c9" fill-rule="evenodd" fill-opacity="0.75"/>
<polyline clip-path="url(#clip612)" style="stroke:#000000; stroke-linecap:round; stroke-linejoin:round; stroke-width:0; stroke-opacity:0.75; fill:none" points="477.155,1430.42 477.15,1423.4 477.09,1416.39 477.002,1409.37 476.919,1402.35 476.871,1395.34 476.887,1388.32 477.013,1381.3 477.327,1374.29 477.908,1367.27 478.767,1360.25 479.759,1353.23 480.582,1346.22 480.909,1339.2 480.596,1332.18 479.782,1325.17 478.794,1318.15 477.951,1311.13 477.436,1304.12 477.336,1297.1 477.758,1290.08 478.904,1283.06 480.979,1276.05 483.922,1269.03 487.154,1262.01 489.632,1255 490.355,1247.98 489,1240.96 486.157,1233.95 482.933,1226.93 480.32,1219.91 478.875,1212.9 478.906,1205.88 480.87,1198.86 485.521,1191.84 493.453,1184.83 504.137,1177.81 515.177,1170.79 522.821,1163.78 523.912,1156.76 517.948,1149.74 507.457,1142.73 496.339,1135.71 487.717,1128.69 483.068,1121.67 482.945,1114.66 488.197,1107.64 500.287,1100.62 520.004,1093.61 545.162,1086.59 569.352,1079.57 583.899,1072.56 582.679,1065.54 566.189,1058.52 541.249,1051.5 516.61,1044.49 498.435,1037.47 489.056,1030.45 488.914,1023.44 499.037,1016.42 521.419,1009.4 556.431,1002.39 598.938,995.369 637.017,988.352 656.396,981.335 648.785,974.318 617.478,967.301 575.118,960.284 535.736,953.267 508.007,946.25 494.301,939.233 494.226,932.216 508.234,925.199 537.837,918.182 581.988,911.165 632.579,904.148 674.104,897.131 690.32,890.114 674.161,883.097 632.592,876.08 581.872,869.063 537.626,862.046 508.074,855.029 494.335,848.012 494.99,840.995 509.807,833.978 539.526,826.961 582.015,819.944 628.309,812.927 663.285,805.91 672.783,798.893 652.558,791.876 611.257,784.859 564.573,777.842 525.925,770.825 501.234,763.808 490.184,756.791 490.563,749.774 501.235,742.757 521.787,735.74 549.766,728.723 578.384,721.706 597.719,714.69 599.745,707.673 583.515,700.656 555.842,693.639 526.774,686.622 503.918,679.605 489.979,672.588 484.128,665.571 484.718,658.554 490.833,651.537 501.879,644.52 516.088,637.503 529.602,630.486 537.485,623.469 536.401,616.452 526.799,609.435 512.616,602.418 498.72,595.401 488.351,588.384 482.356,581.367 480.114,574.35 480.805,567.333 483.971,560.316 489.187,553.299 495.402,546.282 500.716,539.265 503.073,532.248 501.453,525.231 496.557,518.214 490.322,511.197 484.709,504.18 480.783,497.163 478.633,490.146 477.857,483.129 478.057,476.112 478.997,469.095 480.477,462.078 482.135,455.061 483.418,448.044 483.807,441.027 483.13,434.01 481.678,426.993 480.005,419.976 478.596,412.959 477.666,405.942 477.191,398.925 477.052,391.908 477.146,384.891 477.411,377.874 477.781,370.858 478.149,363.841 478.38,356.824 478.377,349.807 478.142,342.79 477.772,335.773 477.397,328.756 477.107,321.739 476.929,314.722 476.843,307.705 476.819,300.688 476.833,293.671 476.877,286.654 476.939,279.637 477.003,272.62 477.045,265.603 477.048,258.586 477.01,251.569 476.947,244.552 476.883,237.535 476.833,230.518 476.802,223.501 476.788,216.484 476.785,209.467 476.79,202.45 476.8,195.433 476.813,188.416 476.825,181.399 476.831,174.382 476.721,174.382 476.727,181.399 476.739,188.416 476.753,195.433 476.763,202.45 476.767,209.467 476.764,216.484 476.75,223.501 476.72,230.518 476.67,237.535 476.605,244.552 476.543,251.569 476.505,258.586 476.508,265.603 476.55,272.62 476.614,279.637 476.676,286.654 476.719,293.671 476.734,300.688 476.709,307.705 476.623,314.722 476.445,321.739 476.156,328.756 475.781,335.773 475.411,342.79 475.175,349.807 475.172,356.824 475.404,363.841 475.771,370.858 476.141,377.874 476.406,384.891 476.501,391.908 476.361,398.925 475.887,405.942 474.957,412.959 473.547,419.976 471.874,426.993 470.423,434.01 469.746,441.027 470.135,448.044 471.418,455.061 473.076,462.078 474.556,469.095 475.496,476.112 475.695,483.129 474.92,490.146 472.77,497.163 468.844,504.18 463.231,511.197 456.996,518.214 452.1,525.231 450.48,532.248 452.836,539.265 458.151,546.282 464.366,553.299 469.582,560.316 472.747,567.333 473.439,574.35 471.197,581.367 465.202,588.384 454.832,595.401 440.937,602.418 426.753,609.435 417.152,616.452 416.067,623.469 423.951,630.486 437.464,637.503 451.674,644.52 462.719,651.537 468.834,658.554 469.425,665.571 463.573,672.588 449.634,679.605 426.779,686.622 397.711,693.639 370.038,700.656 353.808,707.673 355.834,714.69 375.169,721.706 403.787,728.723 431.766,735.74 452.318,742.757 462.99,749.774 463.368,756.791 452.319,763.808 427.628,770.825 388.979,777.842 342.296,784.859 300.994,791.876 280.77,798.893 290.268,805.91 325.243,812.927 371.537,819.944 414.027,826.961 443.745,833.978 458.563,840.995 459.218,848.012 445.478,855.029 415.927,862.046 371.68,869.063 320.961,876.08 279.391,883.097 263.233,890.114 279.448,897.131 320.973,904.148 371.564,911.165 415.715,918.182 445.319,925.199 459.327,932.216 459.252,939.233 445.546,946.25 417.817,953.267 378.435,960.284 336.075,967.301 304.767,974.318 297.157,981.335 316.536,988.352 354.615,995.369 397.122,1002.39 432.134,1009.4 454.516,1016.42 464.639,1023.44 464.497,1030.45 455.118,1037.47 436.943,1044.49 412.304,1051.5 387.364,1058.52 370.874,1065.54 369.653,1072.56 384.201,1079.57 408.391,1086.59 433.548,1093.61 453.265,1100.62 465.356,1107.64 470.608,1114.66 470.485,1121.67 465.835,1128.69 457.213,1135.71 446.096,1142.73 435.605,1149.74 429.641,1156.76 430.732,1163.78 438.376,1170.79 449.415,1177.81 460.099,1184.83 468.032,1191.84 472.682,1198.86 474.647,1205.88 474.677,1212.9 473.232,1219.91 470.619,1226.93 467.395,1233.95 464.553,1240.96 463.198,1247.98 463.92,1255 466.399,1262.01 469.631,1269.03 472.574,1276.05 474.648,1283.06 475.795,1290.08 476.217,1297.1 476.117,1304.12 475.602,1311.13 474.758,1318.15 473.771,1325.17 472.957,1332.18 472.644,1339.2 472.971,1346.22 473.793,1353.23 474.786,1360.25 475.645,1367.27 476.226,1374.29 476.539,1381.3 476.666,1388.32 476.682,1395.34 476.634,1402.35 476.551,1409.37 476.463,1416.39 476.403,1423.4 476.397,1430.42 477.155,1430.42 "/>
<path clip-path="url(#clip612)" d="M1010.78 1430.24 L1010.76 1422.74 L1010.72 1415.24 L1010.69 1407.74 L1010.66 1400.24 L1010.65 1392.73 L1010.66 1385.23 L1010.7 1377.73 L1010.79 1370.23 L1010.93 1362.73 L1011.12 1355.23 L1011.3 1347.73 L1011.39 1340.23 L1011.35 1332.72 L1011.2 1325.22 L1011.01 1317.72 L1010.85 1310.22 L1010.78 1302.72 L1010.83 1295.22 L1011.08 1287.72 L1011.64 1280.22 L1012.57 1272.72 L1013.76 1265.21 L1014.83 1257.71 L1015.34 1250.21 L1015.03 1242.71 L1014.07 1235.21 L1012.88 1227.71 L1011.91 1220.21 L1011.42 1212.71 L1011.62 1205.2 L1012.86 1197.7 L1015.62 1190.2 L1020.2 1182.7 L1025.98 1175.2 L1031.21 1167.7 L1033.65 1160.2 L1032.14 1152.7 L1027.41 1145.2 L1021.6 1137.69 L1016.78 1130.19 L1014.12 1122.69 L1014.19 1115.19 L1017.71 1107.69 L1025.8 1100.19 L1038.86 1092.69 L1054.8 1085.19 L1068.53 1077.68 L1074.14 1070.18 L1068.93 1062.68 L1055.41 1055.18 L1039.46 1047.68 L1026.47 1040.18 L1019.09 1032.68 L1018.15 1025.18 L1024.68 1017.68 L1040.71 1010.17 L1067.09 1002.67 L1099.78 995.172 L1128.39 987.671 L1140.65 980.17 L1130.58 972.669 L1103.1 965.167 L1070.29 957.666 L1043.29 950.165 L1027.51 942.664 L1024.04 935.163 L1033.79 927.662 L1059.19 920.16 L1100.93 912.659 L1152.05 905.158 L1195.9 897.657 L1213.43 890.156 L1196.07 882.655 L1152.28 875.153 L1101.1 867.652 L1059.44 860.151 L1034.72 852.65 L1027.18 845.149 L1036.04 837.648 L1062.53 830.146 L1106.59 822.645 L1160.42 815.144 L1206.28 807.643 L1224.18 800.142 L1205.33 792.641 L1158.9 785.139 L1105.03 777.638 L1061.29 770.137 L1035.1 762.636 L1026.07 755.135 L1032.34 747.634 L1053.9 740.132 L1090.07 732.631 L1134.1 725.13 L1171.26 717.629 L1185.25 710.128 L1169.17 702.627 L1130.82 695.125 L1086.76 687.624 L1051.16 680.123 L1029.7 672.622 L1021.45 665.121 L1024.03 657.62 L1036.39 650.118 L1057.49 642.617 L1083.01 635.116 L1104.18 627.615 L1111.59 620.114 L1101.58 612.613 L1079 605.111 L1053.55 597.61 L1033.24 590.109 L1021.08 582.608 L1016.26 575.107 L1017.12 567.606 L1022.77 560.104 L1032.51 552.603 L1044.16 545.102 L1053.66 537.601 L1056.75 530.1 L1051.89 522.599 L1041.44 515.097 L1029.83 507.596 L1020.67 500.095 L1015.2 492.594 L1012.98 485.093 L1013.16 477.592 L1015.3 470.09 L1019.05 462.589 L1023.6 455.088 L1027.33 447.587 L1028.58 440.086 L1026.7 432.585 L1022.62 425.083 L1018.09 417.582 L1014.51 410.081 L1012.38 402.58 L1011.49 395.079 L1011.49 387.578 L1012.19 380.076 L1013.44 372.575 L1014.95 365.074 L1016.21 357.573 L1016.64 350.072 L1016.02 342.571 L1014.67 335.069 L1013.15 327.568 L1011.95 320.067 L1011.22 312.566 L1010.9 305.065 L1010.87 297.564 L1011.06 290.062 L1011.41 282.561 L1011.86 275.06 L1012.25 267.559 L1012.4 260.058 L1012.24 252.556 L1011.85 245.055 L1011.39 237.554 L1011.03 230.053 L1010.81 222.552 L1010.71 215.051 L1010.69 207.549 L1010.71 200.048 L1010.77 192.547 L1010.85 185.046 L1010.91 177.545 L1010.94 170.044 L1010.91 162.542 L1010.85 155.041 L1010.77 147.54 L1010.71 140.039 L1010.67 132.538 L1010.65 125.037 L1010.66 117.535 L1010.67 110.034 L1010.71 102.533 L1010.75 95.032 L1010.78 87.5308 L1010.49 87.5308 L1010.52 95.032 L1010.56 102.533 L1010.6 110.034 L1010.61 117.535 L1010.62 125.037 L1010.6 132.538 L1010.56 140.039 L1010.5 147.54 L1010.42 155.041 L1010.36 162.542 L1010.33 170.044 L1010.36 177.545 L1010.42 185.046 L1010.5 192.547 L1010.56 200.048 L1010.59 207.549 L1010.56 215.051 L1010.46 222.552 L1010.24 230.053 L1009.88 237.554 L1009.42 245.055 L1009.03 252.556 L1008.87 260.058 L1009.02 267.559 L1009.41 275.06 L1009.86 282.561 L1010.21 290.062 L1010.4 297.564 L1010.37 305.065 L1010.05 312.566 L1009.32 320.067 L1008.12 327.568 L1006.6 335.069 L1005.25 342.571 L1004.63 350.072 L1005.06 357.573 L1006.32 365.074 L1007.83 372.575 L1009.09 380.076 L1009.78 387.578 L1009.78 395.079 L1008.89 402.58 L1006.76 410.081 L1003.18 417.582 L998.647 425.083 L994.567 432.585 L992.693 440.086 L993.935 447.587 L997.67 455.088 L1002.22 462.589 L1005.97 470.09 L1008.11 477.592 L1008.29 485.093 L1006.07 492.594 L1000.6 500.095 L991.436 507.596 L979.832 515.097 L969.377 522.599 L964.519 530.1 L967.608 537.601 L977.106 545.102 L988.763 552.603 L998.495 560.104 L1004.15 567.606 L1005.01 575.107 L1000.19 582.608 L988.026 590.109 L967.723 597.61 L942.27 605.111 L919.693 612.613 L909.678 620.114 L917.09 627.615 L938.256 635.116 L963.776 642.617 L984.885 650.118 L997.244 657.62 L999.818 665.121 L991.566 672.622 L970.107 680.123 L934.51 687.624 L890.447 695.125 L852.1 702.627 L836.022 710.128 L850.015 717.629 L887.174 725.13 L931.197 732.631 L967.368 740.132 L988.928 747.634 L995.198 755.135 L986.165 762.636 L959.984 770.137 L916.242 777.638 L862.367 785.139 L815.939 792.641 L797.092 800.142 L814.991 807.643 L860.854 815.144 L914.684 822.645 L958.737 830.146 L985.227 837.648 L994.093 845.149 L986.546 852.65 L961.827 860.151 L920.166 867.652 L868.995 875.153 L825.196 882.655 L807.835 890.156 L825.371 897.657 L869.216 905.158 L920.337 912.659 L962.083 920.16 L987.481 927.662 L997.229 935.163 L993.756 942.664 L977.976 950.165 L950.977 957.666 L918.166 965.167 L890.685 972.669 L880.618 980.17 L892.878 987.671 L921.491 995.172 L954.176 1002.67 L980.556 1010.17 L996.585 1017.68 L1003.12 1025.18 L1002.18 1032.68 L994.804 1040.18 L981.808 1047.68 L965.863 1055.18 L952.341 1062.68 L947.126 1070.18 L952.742 1077.68 L966.467 1085.19 L982.412 1092.69 L995.467 1100.19 L1003.56 1107.69 L1007.08 1115.19 L1007.15 1122.69 L1004.49 1130.19 L999.673 1137.69 L993.86 1145.2 L989.133 1152.7 L987.617 1160.2 L990.064 1167.7 L995.287 1175.2 L1001.07 1182.7 L1005.65 1190.2 L1008.41 1197.7 L1009.65 1205.2 L1009.85 1212.71 L1009.36 1220.21 L1008.39 1227.71 L1007.2 1235.21 L1006.24 1242.71 L1005.93 1250.21 L1006.44 1257.71 L1007.51 1265.21 L1008.7 1272.72 L1009.63 1280.22 L1010.19 1287.72 L1010.44 1295.22 L1010.49 1302.72 L1010.42 1310.22 L1010.26 1317.72 L1010.07 1325.22 L1009.92 1332.72 L1009.88 1340.23 L1009.97 1347.73 L1010.15 1355.23 L1010.34 1362.73 L1010.48 1370.23 L1010.57 1377.73 L1010.61 1385.23 L1010.62 1392.73 L1010.61 1400.24 L1010.58 1407.74 L1010.55 1415.24 L1010.51 1422.74 L1010.49 1430.24 L1010.78 1430.24  Z" fill="#cd69c9" fill-rule="evenodd" fill-opacity="0.75"/>
<polyline clip-path="url(#clip612)" style="stroke:#000000; stroke-linecap:round; stroke-linejoin:round; stroke-width:0; stroke-opacity:0.75; fill:none" points="1010.78,1430.24 1010.76,1422.74 1010.72,1415.24 1010.69,1407.74 1010.66,1400.24 1010.65,1392.73 1010.66,1385.23 1010.7,1377.73 1010.79,1370.23 1010.93,1362.73 1011.12,1355.23 1011.3,1347.73 1011.39,1340.23 1011.35,1332.72 1011.2,1325.22 1011.01,1317.72 1010.85,1310.22 1010.78,1302.72 1010.83,1295.22 1011.08,1287.72 1011.64,1280.22 1012.57,1272.72 1013.76,1265.21 1014.83,1257.71 1015.34,1250.21 1015.03,1242.71 1014.07,1235.21 1012.88,1227.71 1011.91,1220.21 1011.42,1212.71 1011.62,1205.2 1012.86,1197.7 1015.62,1190.2 1020.2,1182.7 1025.98,1175.2 1031.21,1167.7 1033.65,1160.2 1032.14,1152.7 1027.41,1145.2 1021.6,1137.69 1016.78,1130.19 1014.12,1122.69 1014.19,1115.19 1017.71,1107.69 1025.8,1100.19 1038.86,1092.69 1054.8,1085.19 1068.53,1077.68 1074.14,1070.18 1068.93,1062.68 1055.41,1055.18 1039.46,1047.68 1026.47,1040.18 1019.09,1032.68 1018.15,1025.18 1024.68,1017.68 1040.71,1010.17 1067.09,1002.67 1099.78,995.172 1128.39,987.671 1140.65,980.17 1130.58,972.669 1103.1,965.167 1070.29,957.666 1043.29,950.165 1027.51,942.664 1024.04,935.163 1033.79,927.662 1059.19,920.16 1100.93,912.659 1152.05,905.158 1195.9,897.657 1213.43,890.156 1196.07,882.655 1152.28,875.153 1101.1,867.652 1059.44,860.151 1034.72,852.65 1027.18,845.149 1036.04,837.648 1062.53,830.146 1106.59,822.645 1160.42,815.144 1206.28,807.643 1224.18,800.142 1205.33,792.641 1158.9,785.139 1105.03,777.638 1061.29,770.137 1035.1,762.636 1026.07,755.135 1032.34,747.634 1053.9,740.132 1090.07,732.631 1134.1,725.13 1171.26,717.629 1185.25,710.128 1169.17,702.627 1130.82,695.125 1086.76,687.624 1051.16,680.123 1029.7,672.622 1021.45,665.121 1024.03,657.62 1036.39,650.118 1057.49,642.617 1083.01,635.116 1104.18,627.615 1111.59,620.114 1101.58,612.613 1079,605.111 1053.55,597.61 1033.24,590.109 1021.08,582.608 1016.26,575.107 1017.12,567.606 1022.77,560.104 1032.51,552.603 1044.16,545.102 1053.66,537.601 1056.75,530.1 1051.89,522.599 1041.44,515.097 1029.83,507.596 1020.67,500.095 1015.2,492.594 1012.98,485.093 1013.16,477.592 1015.3,470.09 1019.05,462.589 1023.6,455.088 1027.33,447.587 1028.58,440.086 1026.7,432.585 1022.62,425.083 1018.09,417.582 1014.51,410.081 1012.38,402.58 1011.49,395.079 1011.49,387.578 1012.19,380.076 1013.44,372.575 1014.95,365.074 1016.21,357.573 1016.64,350.072 1016.02,342.571 1014.67,335.069 1013.15,327.568 1011.95,320.067 1011.22,312.566 1010.9,305.065 1010.87,297.564 1011.06,290.062 1011.41,282.561 1011.86,275.06 1012.25,267.559 1012.4,260.058 1012.24,252.556 1011.85,245.055 1011.39,237.554 1011.03,230.053 1010.81,222.552 1010.71,215.051 1010.69,207.549 1010.71,200.048 1010.77,192.547 1010.85,185.046 1010.91,177.545 1010.94,170.044 1010.91,162.542 1010.85,155.041 1010.77,147.54 1010.71,140.039 1010.67,132.538 1010.65,125.037 1010.66,117.535 1010.67,110.034 1010.71,102.533 1010.75,95.032 1010.78,87.5308 1010.49,87.5308 1010.52,95.032 1010.56,102.533 1010.6,110.034 1010.61,117.535 1010.62,125.037 1010.6,132.538 1010.56,140.039 1010.5,147.54 1010.42,155.041 1010.36,162.542 1010.33,170.044 1010.36,177.545 1010.42,185.046 1010.5,192.547 1010.56,200.048 1010.59,207.549 1010.56,215.051 1010.46,222.552 1010.24,230.053 1009.88,237.554 1009.42,245.055 1009.03,252.556 1008.87,260.058 1009.02,267.559 1009.41,275.06 1009.86,282.561 1010.21,290.062 1010.4,297.564 1010.37,305.065 1010.05,312.566 1009.32,320.067 1008.12,327.568 1006.6,335.069 1005.25,342.571 1004.63,350.072 1005.06,357.573 1006.32,365.074 1007.83,372.575 1009.09,380.076 1009.78,387.578 1009.78,395.079 1008.89,402.58 1006.76,410.081 1003.18,417.582 998.647,425.083 994.567,432.585 992.693,440.086 993.935,447.587 997.67,455.088 1002.22,462.589 1005.97,470.09 1008.11,477.592 1008.29,485.093 1006.07,492.594 1000.6,500.095 991.436,507.596 979.832,515.097 969.377,522.599 964.519,530.1 967.608,537.601 977.106,545.102 988.763,552.603 998.495,560.104 1004.15,567.606 1005.01,575.107 1000.19,582.608 988.026,590.109 967.723,597.61 942.27,605.111 919.693,612.613 909.678,620.114 917.09,627.615 938.256,635.116 963.776,642.617 984.885,650.118 997.244,657.62 999.818,665.121 991.566,672.622 970.107,680.123 934.51,687.624 890.447,695.125 852.1,702.627 836.022,710.128 850.015,717.629 887.174,725.13 931.197,732.631 967.368,740.132 988.928,747.634 995.198,755.135 986.165,762.636 959.984,770.137 916.242,777.638 862.367,785.139 815.939,792.641 797.092,800.142 814.991,807.643 860.854,815.144 914.684,822.645 958.737,830.146 985.227,837.648 994.093,845.149 986.546,852.65 961.827,860.151 920.166,867.652 868.995,875.153 825.196,882.655 807.835,890.156 825.371,897.657 869.216,905.158 920.337,912.659 962.083,920.16 987.481,927.662 997.229,935.163 993.756,942.664 977.976,950.165 950.977,957.666 918.166,965.167 890.685,972.669 880.618,980.17 892.878,987.671 921.491,995.172 954.176,1002.67 980.556,1010.17 996.585,1017.68 1003.12,1025.18 1002.18,1032.68 994.804,1040.18 981.808,1047.68 965.863,1055.18 952.341,1062.68 947.126,1070.18 952.742,1077.68 966.467,1085.19 982.412,1092.69 995.467,1100.19 1003.56,1107.69 1007.08,1115.19 1007.15,1122.69 1004.49,1130.19 999.673,1137.69 993.86,1145.2 989.133,1152.7 987.617,1160.2 990.064,1167.7 995.287,1175.2 1001.07,1182.7 1005.65,1190.2 1008.41,1197.7 1009.65,1205.2 1009.85,1212.71 1009.36,1220.21 1008.39,1227.71 1007.2,1235.21 1006.24,1242.71 1005.93,1250.21 1006.44,1257.71 1007.51,1265.21 1008.7,1272.72 1009.63,1280.22 1010.19,1287.72 1010.44,1295.22 1010.49,1302.72 1010.42,1310.22 1010.26,1317.72 1010.07,1325.22 1009.92,1332.72 1009.88,1340.23 1009.97,1347.73 1010.15,1355.23 1010.34,1362.73 1010.48,1370.23 1010.57,1377.73 1010.61,1385.23 1010.62,1392.73 1010.61,1400.24 1010.58,1407.74 1010.55,1415.24 1010.51,1422.74 1010.49,1430.24 1010.78,1430.24 "/>
<path clip-path="url(#clip612)" d="M1544.6 1422.94 L1544.59 1416.83 L1544.56 1410.72 L1544.54 1404.61 L1544.53 1398.49 L1544.53 1392.38 L1544.56 1386.27 L1544.63 1380.16 L1544.78 1374.05 L1545.03 1367.94 L1545.39 1361.83 L1545.83 1355.72 L1546.25 1349.61 L1546.53 1343.5 L1546.6 1337.39 L1546.41 1331.27 L1546.05 1325.16 L1545.61 1319.05 L1545.21 1312.94 L1544.95 1306.83 L1544.88 1300.72 L1545.07 1294.61 L1545.64 1288.5 L1546.76 1282.39 L1548.55 1276.28 L1550.95 1270.16 L1553.61 1264.05 L1555.93 1257.94 L1557.2 1251.83 L1557.02 1245.72 L1555.44 1239.61 L1552.97 1233.5 L1550.34 1227.39 L1548.14 1221.28 L1546.77 1215.17 L1546.45 1209.06 L1547.5 1202.94 L1550.42 1196.83 L1555.88 1190.72 L1564.21 1184.61 L1574.86 1178.5 L1585.98 1172.39 L1594.75 1166.28 L1598.45 1160.17 L1595.84 1154.06 L1587.79 1147.95 L1576.87 1141.84 L1566.02 1135.72 L1557.42 1129.61 L1552.14 1123.5 L1550.55 1117.39 L1553.07 1111.28 L1560.66 1105.17 L1574.45 1099.06 L1594.7 1092.95 L1619.34 1086.84 L1643.45 1080.73 L1660.44 1074.62 L1664.85 1068.5 L1655.16 1062.39 L1634.6 1056.28 L1609.5 1050.17 L1586.18 1044.06 L1568.7 1037.95 L1558.55 1031.84 L1555.82 1025.73 L1560.78 1019.62 L1574.51 1013.51 L1598.2 1007.4 L1631.14 1001.28 L1668.83 995.174 L1702.79 989.063 L1723.18 982.952 L1723.27 976.841 L1703 970.73 L1669.02 964.619 L1631.22 958.508 L1598.26 952.397 L1574.9 946.286 L1562.26 940.175 L1559.87 934.065 L1567.75 927.954 L1586.91 921.843 L1618.13 915.732 L1659.31 909.621 L1703.66 903.51 L1740.26 897.399 L1758.04 891.288 L1751.03 885.177 L1721.58 879.066 L1679.08 872.955 L1635.23 866.844 L1598.99 860.734 L1574.44 854.623 L1561.67 848.512 L1559.28 842.401 L1566.48 836.29 L1583.38 830.179 L1609.66 824.068 L1642.53 817.957 L1675.54 811.846 L1699.83 805.735 L1707.69 799.624 L1696.41 793.513 L1669.77 787.403 L1636.02 781.292 L1603.78 775.181 L1578.75 769.07 L1562.76 762.959 L1555.09 756.848 L1554.36 750.737 L1559.83 744.626 L1571.37 738.515 L1588.41 732.404 L1608.68 726.293 L1627.79 720.182 L1640.31 714.072 L1642.17 707.961 L1632.7 701.85 L1615.05 695.739 L1594.49 689.628 L1575.9 683.517 L1562.12 677.406 L1553.7 671.295 L1549.9 665.184 L1549.76 659.073 L1552.72 652.962 L1558.52 646.851 L1566.64 640.741 L1575.72 634.63 L1583.6 628.519 L1587.93 622.408 L1587.26 616.297 L1581.8 610.186 L1573.33 604.075 L1564.24 597.964 L1556.49 591.853 L1551.02 585.742 L1547.84 579.631 L1546.5 573.52 L1546.55 567.41 L1547.71 561.299 L1549.79 555.188 L1552.51 549.077 L1555.34 542.966 L1557.54 536.855 L1558.4 530.744 L1557.64 524.633 L1555.51 518.522 L1552.68 512.411 L1549.88 506.3 L1547.64 500.189 L1546.14 494.079 L1545.31 487.968 L1544.97 481.857 L1544.97 475.746 L1545.21 469.635 L1545.64 463.524 L1546.17 457.413 L1546.69 451.302 L1547.04 445.191 L1547.12 439.08 L1546.9 432.969 L1546.45 426.858 L1545.9 420.748 L1545.4 414.637 L1545.01 408.526 L1544.77 402.415 L1544.65 396.304 L1544.63 390.193 L1544.69 384.082 L1544.82 377.971 L1544.99 371.86 L1545.17 365.749 L1545.31 359.638 L1545.37 353.527 L1543.61 353.527 L1543.68 359.638 L1543.82 365.749 L1544 371.86 L1544.17 377.971 L1544.29 384.082 L1544.35 390.193 L1544.34 396.304 L1544.22 402.415 L1543.98 408.526 L1543.59 414.637 L1543.08 420.748 L1542.54 426.858 L1542.09 432.969 L1541.86 439.08 L1541.94 445.191 L1542.3 451.302 L1542.81 457.413 L1543.35 463.524 L1543.77 469.635 L1544.02 475.746 L1544.02 481.857 L1543.68 487.968 L1542.85 494.079 L1541.35 500.189 L1539.11 506.3 L1536.31 512.411 L1533.47 518.522 L1531.34 524.633 L1530.59 530.744 L1531.45 536.855 L1533.64 542.966 L1536.47 549.077 L1539.2 555.188 L1541.28 561.299 L1542.44 567.41 L1542.48 573.52 L1541.15 579.631 L1537.97 585.742 L1532.5 591.853 L1524.75 597.964 L1515.66 604.075 L1507.19 610.186 L1501.73 616.297 L1501.06 622.408 L1505.38 628.519 L1513.27 634.63 L1522.35 640.741 L1530.46 646.851 L1536.27 652.962 L1539.23 659.073 L1539.09 665.184 L1535.29 671.295 L1526.87 677.406 L1513.08 683.517 L1494.5 689.628 L1473.94 695.739 L1456.28 701.85 L1446.82 707.961 L1448.68 714.072 L1461.2 720.182 L1480.31 726.293 L1500.58 732.404 L1517.62 738.515 L1529.16 744.626 L1534.63 750.737 L1533.9 756.848 L1526.22 762.959 L1510.24 769.07 L1485.21 775.181 L1452.97 781.292 L1419.21 787.403 L1392.57 793.513 L1381.29 799.624 L1389.15 805.735 L1413.45 811.846 L1446.46 817.957 L1479.33 824.068 L1505.61 830.179 L1522.5 836.29 L1529.7 842.401 L1527.32 848.512 L1514.54 854.623 L1489.99 860.734 L1453.76 866.844 L1409.9 872.955 L1367.41 879.066 L1337.96 885.177 L1330.95 891.288 L1348.73 897.399 L1385.33 903.51 L1429.68 909.621 L1470.86 915.732 L1502.07 921.843 L1521.24 927.954 L1529.11 934.065 L1526.72 940.175 L1514.08 946.286 L1490.73 952.397 L1457.77 958.508 L1419.97 964.619 L1385.99 970.73 L1365.72 976.841 L1365.81 982.952 L1386.2 989.063 L1420.16 995.174 L1457.85 1001.28 L1490.79 1007.4 L1514.48 1013.51 L1528.21 1019.62 L1533.17 1025.73 L1530.44 1031.84 L1520.29 1037.95 L1502.81 1044.06 L1479.49 1050.17 L1454.38 1056.28 L1433.83 1062.39 L1424.14 1068.5 L1428.55 1074.62 L1445.54 1080.73 L1469.65 1086.84 L1494.29 1092.95 L1514.53 1099.06 L1528.33 1105.17 L1535.92 1111.28 L1538.44 1117.39 L1536.84 1123.5 L1531.56 1129.61 L1522.97 1135.72 L1512.12 1141.84 L1501.19 1147.95 L1493.15 1154.06 L1490.54 1160.17 L1494.24 1166.28 L1503.01 1172.39 L1514.13 1178.5 L1524.78 1184.61 L1533.11 1190.72 L1538.56 1196.83 L1541.49 1202.94 L1542.54 1209.06 L1542.22 1215.17 L1540.85 1221.28 L1538.65 1227.39 L1536.02 1233.5 L1533.55 1239.61 L1531.97 1245.72 L1531.79 1251.83 L1533.06 1257.94 L1535.37 1264.05 L1538.04 1270.16 L1540.44 1276.28 L1542.23 1282.39 L1543.35 1288.5 L1543.92 1294.61 L1544.11 1300.72 L1544.04 1306.83 L1543.77 1312.94 L1543.38 1319.05 L1542.94 1325.16 L1542.57 1331.27 L1542.39 1337.39 L1542.45 1343.5 L1542.74 1349.61 L1543.16 1355.72 L1543.6 1361.83 L1543.96 1367.94 L1544.21 1374.05 L1544.36 1380.16 L1544.43 1386.27 L1544.46 1392.38 L1544.46 1398.49 L1544.45 1404.61 L1544.42 1410.72 L1544.4 1416.83 L1544.39 1422.94 L1544.6 1422.94  Z" fill="#cd69c9" fill-rule="evenodd" fill-opacity="0.75"/>
<polyline clip-path="url(#clip612)" style="stroke:#000000; stroke-linecap:round; stroke-linejoin:round; stroke-width:0; stroke-opacity:0.75; fill:none" points="1544.6,1422.94 1544.59,1416.83 1544.56,1410.72 1544.54,1404.61 1544.53,1398.49 1544.53,1392.38 1544.56,1386.27 1544.63,1380.16 1544.78,1374.05 1545.03,1367.94 1545.39,1361.83 1545.83,1355.72 1546.25,1349.61 1546.53,1343.5 1546.6,1337.39 1546.41,1331.27 1546.05,1325.16 1545.61,1319.05 1545.21,1312.94 1544.95,1306.83 1544.88,1300.72 1545.07,1294.61 1545.64,1288.5 1546.76,1282.39 1548.55,1276.28 1550.95,1270.16 1553.61,1264.05 1555.93,1257.94 1557.2,1251.83 1557.02,1245.72 1555.44,1239.61 1552.97,1233.5 1550.34,1227.39 1548.14,1221.28 1546.77,1215.17 1546.45,1209.06 1547.5,1202.94 1550.42,1196.83 1555.88,1190.72 1564.21,1184.61 1574.86,1178.5 1585.98,1172.39 1594.75,1166.28 1598.45,1160.17 1595.84,1154.06 1587.79,1147.95 1576.87,1141.84 1566.02,1135.72 1557.42,1129.61 1552.14,1123.5 1550.55,1117.39 1553.07,1111.28 1560.66,1105.17 1574.45,1099.06 1594.7,1092.95 1619.34,1086.84 1643.45,1080.73 1660.44,1074.62 1664.85,1068.5 1655.16,1062.39 1634.6,1056.28 1609.5,1050.17 1586.18,1044.06 1568.7,1037.95 1558.55,1031.84 1555.82,1025.73 1560.78,1019.62 1574.51,1013.51 1598.2,1007.4 1631.14,1001.28 1668.83,995.174 1702.79,989.063 1723.18,982.952 1723.27,976.841 1703,970.73 1669.02,964.619 1631.22,958.508 1598.26,952.397 1574.9,946.286 1562.26,940.175 1559.87,934.065 1567.75,927.954 1586.91,921.843 1618.13,915.732 1659.31,909.621 1703.66,903.51 1740.26,897.399 1758.04,891.288 1751.03,885.177 1721.58,879.066 1679.08,872.955 1635.23,866.844 1598.99,860.734 1574.44,854.623 1561.67,848.512 1559.28,842.401 1566.48,836.29 1583.38,830.179 1609.66,824.068 1642.53,817.957 1675.54,811.846 1699.83,805.735 1707.69,799.624 1696.41,793.513 1669.77,787.403 1636.02,781.292 1603.78,775.181 1578.75,769.07 1562.76,762.959 1555.09,756.848 1554.36,750.737 1559.83,744.626 1571.37,738.515 1588.41,732.404 1608.68,726.293 1627.79,720.182 1640.31,714.072 1642.17,707.961 1632.7,701.85 1615.05,695.739 1594.49,689.628 1575.9,683.517 1562.12,677.406 1553.7,671.295 1549.9,665.184 1549.76,659.073 1552.72,652.962 1558.52,646.851 1566.64,640.741 1575.72,634.63 1583.6,628.519 1587.93,622.408 1587.26,616.297 1581.8,610.186 1573.33,604.075 1564.24,597.964 1556.49,591.853 1551.02,585.742 1547.84,579.631 1546.5,573.52 1546.55,567.41 1547.71,561.299 1549.79,555.188 1552.51,549.077 1555.34,542.966 1557.54,536.855 1558.4,530.744 1557.64,524.633 1555.51,518.522 1552.68,512.411 1549.88,506.3 1547.64,500.189 1546.14,494.079 1545.31,487.968 1544.97,481.857 1544.97,475.746 1545.21,469.635 1545.64,463.524 1546.17,457.413 1546.69,451.302 1547.04,445.191 1547.12,439.08 1546.9,432.969 1546.45,426.858 1545.9,420.748 1545.4,414.637 1545.01,408.526 1544.77,402.415 1544.65,396.304 1544.63,390.193 1544.69,384.082 1544.82,377.971 1544.99,371.86 1545.17,365.749 1545.31,359.638 1545.37,353.527 1543.61,353.527 1543.68,359.638 1543.82,365.749 1544,371.86 1544.17,377.971 1544.29,384.082 1544.35,390.193 1544.34,396.304 1544.22,402.415 1543.98,408.526 1543.59,414.637 1543.08,420.748 1542.54,426.858 1542.09,432.969 1541.86,439.08 1541.94,445.191 1542.3,451.302 1542.81,457.413 1543.35,463.524 1543.77,469.635 1544.02,475.746 1544.02,481.857 1543.68,487.968 1542.85,494.079 1541.35,500.189 1539.11,506.3 1536.31,512.411 1533.47,518.522 1531.34,524.633 1530.59,530.744 1531.45,536.855 1533.64,542.966 1536.47,549.077 1539.2,555.188 1541.28,561.299 1542.44,567.41 1542.48,573.52 1541.15,579.631 1537.97,585.742 1532.5,591.853 1524.75,597.964 1515.66,604.075 1507.19,610.186 1501.73,616.297 1501.06,622.408 1505.38,628.519 1513.27,634.63 1522.35,640.741 1530.46,646.851 1536.27,652.962 1539.23,659.073 1539.09,665.184 1535.29,671.295 1526.87,677.406 1513.08,683.517 1494.5,689.628 1473.94,695.739 1456.28,701.85 1446.82,707.961 1448.68,714.072 1461.2,720.182 1480.31,726.293 1500.58,732.404 1517.62,738.515 1529.16,744.626 1534.63,750.737 1533.9,756.848 1526.22,762.959 1510.24,769.07 1485.21,775.181 1452.97,781.292 1419.21,787.403 1392.57,793.513 1381.29,799.624 1389.15,805.735 1413.45,811.846 1446.46,817.957 1479.33,824.068 1505.61,830.179 1522.5,836.29 1529.7,842.401 1527.32,848.512 1514.54,854.623 1489.99,860.734 1453.76,866.844 1409.9,872.955 1367.41,879.066 1337.96,885.177 1330.95,891.288 1348.73,897.399 1385.33,903.51 1429.68,909.621 1470.86,915.732 1502.07,921.843 1521.24,927.954 1529.11,934.065 1526.72,940.175 1514.08,946.286 1490.73,952.397 1457.77,958.508 1419.97,964.619 1385.99,970.73 1365.72,976.841 1365.81,982.952 1386.2,989.063 1420.16,995.174 1457.85,1001.28 1490.79,1007.4 1514.48,1013.51 1528.21,1019.62 1533.17,1025.73 1530.44,1031.84 1520.29,1037.95 1502.81,1044.06 1479.49,1050.17 1454.38,1056.28 1433.83,1062.39 1424.14,1068.5 1428.55,1074.62 1445.54,1080.73 1469.65,1086.84 1494.29,1092.95 1514.53,1099.06 1528.33,1105.17 1535.92,1111.28 1538.44,1117.39 1536.84,1123.5 1531.56,1129.61 1522.97,1135.72 1512.12,1141.84 1501.19,1147.95 1493.15,1154.06 1490.54,1160.17 1494.24,1166.28 1503.01,1172.39 1514.13,1178.5 1524.78,1184.61 1533.11,1190.72 1538.56,1196.83 1541.49,1202.94 1542.54,1209.06 1542.22,1215.17 1540.85,1221.28 1538.65,1227.39 1536.02,1233.5 1533.55,1239.61 1531.97,1245.72 1531.79,1251.83 1533.06,1257.94 1535.37,1264.05 1538.04,1270.16 1540.44,1276.28 1542.23,1282.39 1543.35,1288.5 1543.92,1294.61 1544.11,1300.72 1544.04,1306.83 1543.77,1312.94 1543.38,1319.05 1542.94,1325.16 1542.57,1331.27 1542.39,1337.39 1542.45,1343.5 1542.74,1349.61 1543.16,1355.72 1543.6,1361.83 1543.96,1367.94 1544.21,1374.05 1544.36,1380.16 1544.43,1386.27 1544.46,1392.38 1544.46,1398.49 1544.45,1404.61 1544.42,1410.72 1544.4,1416.83 1544.39,1422.94 1544.6,1422.94 "/>
<path clip-path="url(#clip612)" d="M2079.01 1338.23 L2078.98 1331.64 L2078.88 1325.04 L2078.73 1318.45 L2078.6 1311.86 L2078.51 1305.27 L2078.5 1298.68 L2078.6 1292.09 L2078.9 1285.5 L2079.45 1278.91 L2080.31 1272.32 L2081.39 1265.72 L2082.43 1259.13 L2083.11 1252.54 L2083.16 1245.95 L2082.57 1239.36 L2081.56 1232.77 L2080.48 1226.18 L2079.62 1219.59 L2079.15 1212.99 L2079.2 1206.4 L2079.95 1199.81 L2081.71 1193.22 L2084.75 1186.63 L2089.02 1180.04 L2093.83 1173.45 L2097.88 1166.86 L2099.75 1160.26 L2098.74 1153.67 L2095.23 1147.08 L2090.5 1140.49 L2086.01 1133.9 L2082.77 1127.31 L2081.25 1120.72 L2081.77 1114.13 L2084.9 1107.53 L2091.45 1100.94 L2101.88 1094.35 L2115.26 1087.76 L2128.71 1081.17 L2138.05 1074.58 L2139.82 1067.99 L2133.3 1061.4 L2120.99 1054.81 L2107.11 1048.21 L2095.38 1041.62 L2087.81 1035.03 L2085.02 1028.44 L2087.51 1021.85 L2096.46 1015.26 L2113.46 1008.67 L2138.66 1002.08 L2168.64 995.484 L2195.89 988.893 L2211.33 982.302 L2209.07 975.711 L2189.99 969.119 L2161.18 962.528 L2131.84 955.937 L2108.81 949.346 L2094.99 942.754 L2090.7 936.163 L2096.29 929.572 L2113.31 922.981 L2143.45 916.39 L2185.23 909.798 L2231.14 903.207 L2268.13 896.616 L2283.09 890.025 L2270.18 883.434 L2234.44 876.842 L2188.7 870.251 L2146.33 863.66 L2115.55 857.069 L2098.62 850.478 L2094.78 843.886 L2103.63 837.295 L2126.18 830.704 L2162.8 824.113 L2209.51 817.521 L2255.82 810.93 L2287.18 804.339 L2291.9 797.748 L2268.03 791.157 L2224.64 784.565 L2176.35 777.974 L2135.59 771.383 L2108.34 764.792 L2094.87 758.201 L2093.44 751.609 L2103.12 745.018 L2124.06 738.427 L2155.24 731.836 L2191.62 725.244 L2223.56 718.653 L2240.2 712.062 L2235.15 705.471 L2210.37 698.88 L2174.94 692.288 L2139.8 685.697 L2112.53 679.106 L2095.58 672.515 L2087.94 665.924 L2087.8 659.332 L2094.17 652.741 L2106.67 646.15 L2124 639.559 L2142.6 632.968 L2156.92 626.376 L2161.76 619.785 L2155.21 613.194 L2139.81 606.603 L2121 600.011 L2104.08 593.42 L2091.99 586.829 L2085.16 580.238 L2082.69 573.647 L2083.7 567.055 L2087.77 560.464 L2094.57 553.873 L2103.11 547.282 L2111.31 540.691 L2116.51 534.099 L2116.73 527.508 L2111.89 520.917 L2103.79 514.326 L2095.11 507.734 L2087.95 501.143 L2083.18 494.552 L2080.65 487.961 L2079.79 481.37 L2080.11 474.778 L2081.35 468.187 L2083.28 461.596 L2085.52 455.005 L2087.43 448.414 L2088.35 441.822 L2087.91 435.231 L2086.29 428.64 L2084.08 422.049 L2081.94 415.458 L2080.31 408.866 L2079.31 402.275 L2078.82 395.684 L2078.71 389.093 L2078.87 382.501 L2079.24 375.91 L2079.76 369.319 L2080.3 362.728 L2080.69 356.137 L2080.79 349.545 L2080.55 342.954 L2080.07 336.363 L2079.52 329.772 L2079.04 323.181 L2078.7 316.589 L2078.52 309.998 L2078.44 303.407 L2078.44 296.816 L2078.5 290.224 L2078.6 283.633 L2078.72 277.042 L2078.83 270.451 L2078.9 263.86 L2078.89 257.268 L2078.81 250.677 L2078.69 244.086 L2078.57 237.495 L2078.48 230.904 L2078.42 224.312 L2078.39 217.721 L2078.39 211.13 L2078.42 204.539 L2078.47 197.948 L2078.53 191.356 L2078.61 184.765 L2078.66 178.174 L2078.68 171.583 L2078.03 171.583 L2078.04 178.174 L2078.1 184.765 L2078.17 191.356 L2078.24 197.948 L2078.29 204.539 L2078.31 211.13 L2078.32 217.721 L2078.29 224.312 L2078.23 230.904 L2078.13 237.495 L2078.01 244.086 L2077.9 250.677 L2077.82 257.268 L2077.81 263.86 L2077.87 270.451 L2077.98 277.042 L2078.1 283.633 L2078.2 290.224 L2078.26 296.816 L2078.26 303.407 L2078.19 309.998 L2078 316.589 L2077.67 323.181 L2077.19 329.772 L2076.63 336.363 L2076.15 342.954 L2075.91 349.545 L2076.01 356.137 L2076.41 362.728 L2076.95 369.319 L2077.47 375.91 L2077.84 382.501 L2078 389.093 L2077.88 395.684 L2077.4 402.275 L2076.39 408.866 L2074.76 415.458 L2072.63 422.049 L2070.42 428.64 L2068.8 435.231 L2068.36 441.822 L2069.27 448.414 L2071.18 455.005 L2073.42 461.596 L2075.36 468.187 L2076.59 474.778 L2076.91 481.37 L2076.05 487.961 L2073.52 494.552 L2068.76 501.143 L2061.6 507.734 L2052.91 514.326 L2044.82 520.917 L2039.97 527.508 L2040.2 534.099 L2045.39 540.691 L2053.59 547.282 L2062.13 553.873 L2068.94 560.464 L2073 567.055 L2074.01 573.647 L2071.55 580.238 L2064.71 586.829 L2052.62 593.42 L2035.7 600.011 L2016.9 606.603 L2001.5 613.194 L1994.94 619.785 L1999.79 626.376 L2014.11 632.968 L2032.7 639.559 L2050.03 646.15 L2062.53 652.741 L2068.9 659.332 L2068.76 665.924 L2061.12 672.515 L2044.17 679.106 L2016.9 685.697 L1981.76 692.288 L1946.34 698.88 L1921.56 705.471 L1916.51 712.062 L1933.15 718.653 L1965.09 725.244 L2001.46 731.836 L2032.64 738.427 L2053.59 745.018 L2063.27 751.609 L2061.84 758.201 L2048.37 764.792 L2021.11 771.383 L1980.36 777.974 L1932.06 784.565 L1888.68 791.157 L1864.81 797.748 L1869.52 804.339 L1900.88 810.93 L1947.2 817.521 L1993.91 824.113 L2030.52 830.704 L2053.08 837.295 L2061.93 843.886 L2058.09 850.478 L2041.16 857.069 L2010.38 863.66 L1968 870.251 L1922.26 876.842 L1886.53 883.434 L1873.61 890.025 L1888.58 896.616 L1925.57 903.207 L1971.47 909.798 L2013.26 916.39 L2043.39 922.981 L2060.42 929.572 L2066 936.163 L2061.72 942.754 L2047.89 949.346 L2024.86 955.937 L1995.52 962.528 L1966.72 969.119 L1947.63 975.711 L1945.37 982.302 L1960.81 988.893 L1988.06 995.484 L2018.04 1002.08 L2043.24 1008.67 L2060.24 1015.26 L2069.2 1021.85 L2071.68 1028.44 L2068.9 1035.03 L2061.32 1041.62 L2049.59 1048.21 L2035.71 1054.81 L2023.4 1061.4 L2016.88 1067.99 L2018.65 1074.58 L2028 1081.17 L2041.45 1087.76 L2054.83 1094.35 L2065.25 1100.94 L2071.8 1107.53 L2074.93 1114.13 L2075.46 1120.72 L2073.94 1127.31 L2070.69 1133.9 L2066.2 1140.49 L2061.48 1147.08 L2057.97 1153.67 L2056.95 1160.26 L2058.83 1166.86 L2062.87 1173.45 L2067.68 1180.04 L2071.95 1186.63 L2074.99 1193.22 L2076.75 1199.81 L2077.5 1206.4 L2077.55 1212.99 L2077.09 1219.59 L2076.23 1226.18 L2075.14 1232.77 L2074.14 1239.36 L2073.54 1245.95 L2073.6 1252.54 L2074.27 1259.13 L2075.31 1265.72 L2076.39 1272.32 L2077.25 1278.91 L2077.81 1285.5 L2078.1 1292.09 L2078.21 1298.68 L2078.2 1305.27 L2078.11 1311.86 L2077.97 1318.45 L2077.83 1325.04 L2077.72 1331.64 L2077.69 1338.23 L2079.01 1338.23  Z" fill="#cd69c9" fill-rule="evenodd" fill-opacity="0.75"/>
<polyline clip-path="url(#clip612)" style="stroke:#000000; stroke-linecap:round; stroke-linejoin:round; stroke-width:0; stroke-opacity:0.75; fill:none" points="2079.01,1338.23 2078.98,1331.64 2078.88,1325.04 2078.73,1318.45 2078.6,1311.86 2078.51,1305.27 2078.5,1298.68 2078.6,1292.09 2078.9,1285.5 2079.45,1278.91 2080.31,1272.32 2081.39,1265.72 2082.43,1259.13 2083.11,1252.54 2083.16,1245.95 2082.57,1239.36 2081.56,1232.77 2080.48,1226.18 2079.62,1219.59 2079.15,1212.99 2079.2,1206.4 2079.95,1199.81 2081.71,1193.22 2084.75,1186.63 2089.02,1180.04 2093.83,1173.45 2097.88,1166.86 2099.75,1160.26 2098.74,1153.67 2095.23,1147.08 2090.5,1140.49 2086.01,1133.9 2082.77,1127.31 2081.25,1120.72 2081.77,1114.13 2084.9,1107.53 2091.45,1100.94 2101.88,1094.35 2115.26,1087.76 2128.71,1081.17 2138.05,1074.58 2139.82,1067.99 2133.3,1061.4 2120.99,1054.81 2107.11,1048.21 2095.38,1041.62 2087.81,1035.03 2085.02,1028.44 2087.51,1021.85 2096.46,1015.26 2113.46,1008.67 2138.66,1002.08 2168.64,995.484 2195.89,988.893 2211.33,982.302 2209.07,975.711 2189.99,969.119 2161.18,962.528 2131.84,955.937 2108.81,949.346 2094.99,942.754 2090.7,936.163 2096.29,929.572 2113.31,922.981 2143.45,916.39 2185.23,909.798 2231.14,903.207 2268.13,896.616 2283.09,890.025 2270.18,883.434 2234.44,876.842 2188.7,870.251 2146.33,863.66 2115.55,857.069 2098.62,850.478 2094.78,843.886 2103.63,837.295 2126.18,830.704 2162.8,824.113 2209.51,817.521 2255.82,810.93 2287.18,804.339 2291.9,797.748 2268.03,791.157 2224.64,784.565 2176.35,777.974 2135.59,771.383 2108.34,764.792 2094.87,758.201 2093.44,751.609 2103.12,745.018 2124.06,738.427 2155.24,731.836 2191.62,725.244 2223.56,718.653 2240.2,712.062 2235.15,705.471 2210.37,698.88 2174.94,692.288 2139.8,685.697 2112.53,679.106 2095.58,672.515 2087.94,665.924 2087.8,659.332 2094.17,652.741 2106.67,646.15 2124,639.559 2142.6,632.968 2156.92,626.376 2161.76,619.785 2155.21,613.194 2139.81,606.603 2121,600.011 2104.08,593.42 2091.99,586.829 2085.16,580.238 2082.69,573.647 2083.7,567.055 2087.77,560.464 2094.57,553.873 2103.11,547.282 2111.31,540.691 2116.51,534.099 2116.73,527.508 2111.89,520.917 2103.79,514.326 2095.11,507.734 2087.95,501.143 2083.18,494.552 2080.65,487.961 2079.79,481.37 2080.11,474.778 2081.35,468.187 2083.28,461.596 2085.52,455.005 2087.43,448.414 2088.35,441.822 2087.91,435.231 2086.29,428.64 2084.08,422.049 2081.94,415.458 2080.31,408.866 2079.31,402.275 2078.82,395.684 2078.71,389.093 2078.87,382.501 2079.24,375.91 2079.76,369.319 2080.3,362.728 2080.69,356.137 2080.79,349.545 2080.55,342.954 2080.07,336.363 2079.52,329.772 2079.04,323.181 2078.7,316.589 2078.52,309.998 2078.44,303.407 2078.44,296.816 2078.5,290.224 2078.6,283.633 2078.72,277.042 2078.83,270.451 2078.9,263.86 2078.89,257.268 2078.81,250.677 2078.69,244.086 2078.57,237.495 2078.48,230.904 2078.42,224.312 2078.39,217.721 2078.39,211.13 2078.42,204.539 2078.47,197.948 2078.53,191.356 2078.61,184.765 2078.66,178.174 2078.68,171.583 2078.03,171.583 2078.04,178.174 2078.1,184.765 2078.17,191.356 2078.24,197.948 2078.29,204.539 2078.31,211.13 2078.32,217.721 2078.29,224.312 2078.23,230.904 2078.13,237.495 2078.01,244.086 2077.9,250.677 2077.82,257.268 2077.81,263.86 2077.87,270.451 2077.98,277.042 2078.1,283.633 2078.2,290.224 2078.26,296.816 2078.26,303.407 2078.19,309.998 2078,316.589 2077.67,323.181 2077.19,329.772 2076.63,336.363 2076.15,342.954 2075.91,349.545 2076.01,356.137 2076.41,362.728 2076.95,369.319 2077.47,375.91 2077.84,382.501 2078,389.093 2077.88,395.684 2077.4,402.275 2076.39,408.866 2074.76,415.458 2072.63,422.049 2070.42,428.64 2068.8,435.231 2068.36,441.822 2069.27,448.414 2071.18,455.005 2073.42,461.596 2075.36,468.187 2076.59,474.778 2076.91,481.37 2076.05,487.961 2073.52,494.552 2068.76,501.143 2061.6,507.734 2052.91,514.326 2044.82,520.917 2039.97,527.508 2040.2,534.099 2045.39,540.691 2053.59,547.282 2062.13,553.873 2068.94,560.464 2073,567.055 2074.01,573.647 2071.55,580.238 2064.71,586.829 2052.62,593.42 2035.7,600.011 2016.9,606.603 2001.5,613.194 1994.94,619.785 1999.79,626.376 2014.11,632.968 2032.7,639.559 2050.03,646.15 2062.53,652.741 2068.9,659.332 2068.76,665.924 2061.12,672.515 2044.17,679.106 2016.9,685.697 1981.76,692.288 1946.34,698.88 1921.56,705.471 1916.51,712.062 1933.15,718.653 1965.09,725.244 2001.46,731.836 2032.64,738.427 2053.59,745.018 2063.27,751.609 2061.84,758.201 2048.37,764.792 2021.11,771.383 1980.36,777.974 1932.06,784.565 1888.68,791.157 1864.81,797.748 1869.52,804.339 1900.88,810.93 1947.2,817.521 1993.91,824.113 2030.52,830.704 2053.08,837.295 2061.93,843.886 2058.09,850.478 2041.16,857.069 2010.38,863.66 1968,870.251 1922.26,876.842 1886.53,883.434 1873.61,890.025 1888.58,896.616 1925.57,903.207 1971.47,909.798 2013.26,916.39 2043.39,922.981 2060.42,929.572 2066,936.163 2061.72,942.754 2047.89,949.346 2024.86,955.937 1995.52,962.528 1966.72,969.119 1947.63,975.711 1945.37,982.302 1960.81,988.893 1988.06,995.484 2018.04,1002.08 2043.24,1008.67 2060.24,1015.26 2069.2,1021.85 2071.68,1028.44 2068.9,1035.03 2061.32,1041.62 2049.59,1048.21 2035.71,1054.81 2023.4,1061.4 2016.88,1067.99 2018.65,1074.58 2028,1081.17 2041.45,1087.76 2054.83,1094.35 2065.25,1100.94 2071.8,1107.53 2074.93,1114.13 2075.46,1120.72 2073.94,1127.31 2070.69,1133.9 2066.2,1140.49 2061.48,1147.08 2057.97,1153.67 2056.95,1160.26 2058.83,1166.86 2062.87,1173.45 2067.68,1180.04 2071.95,1186.63 2074.99,1193.22 2076.75,1199.81 2077.5,1206.4 2077.55,1212.99 2077.09,1219.59 2076.23,1226.18 2075.14,1232.77 2074.14,1239.36 2073.54,1245.95 2073.6,1252.54 2074.27,1259.13 2075.31,1265.72 2076.39,1272.32 2077.25,1278.91 2077.81,1285.5 2078.1,1292.09 2078.21,1298.68 2078.2,1305.27 2078.11,1311.86 2077.97,1318.45 2077.83,1325.04 2077.72,1331.64 2077.69,1338.23 2079.01,1338.23 "/>
<circle clip-path="url(#clip612)" cx="476.776" cy="978.743" r="28.8" fill="#000080" fill-rule="evenodd" fill-opacity="0.75" stroke="none"/>
<circle clip-path="url(#clip612)" cx="1010.64" cy="888.836" r="28.8" fill="#000080" fill-rule="evenodd" fill-opacity="0.75" stroke="none"/>
<circle clip-path="url(#clip612)" cx="1544.49" cy="978.743" r="28.8" fill="#000080" fill-rule="evenodd" fill-opacity="0.75" stroke="none"/>
<circle clip-path="url(#clip612)" cx="2078.35" cy="888.836" r="28.8" fill="#000080" fill-rule="evenodd" fill-opacity="0.75" stroke="none"/>
</svg>
